<?xml version="1.0" standalone="no"?>
<!DOCTYPE svg PUBLIC "-//W3C//DTD SVG 20010904//EN"
 "http://www.w3.org/TR/2001/REC-SVG-20010904/DTD/svg10.dtd">
<svg version="1.0" xmlns="http://www.w3.org/2000/svg"
 width="100.000000pt" height="100.000000pt" viewBox="0 0 100.000000 100.000000"
 preserveAspectRatio="xMidYMid meet">
<metadata>
Created by potrace 1.10, written by Peter Selinger 2001-2011
</metadata>
<g transform="translate(0.000000,100.000000) scale(0.100000,-0.100000)"
fill="#0000ff" stroke="none">
<path d="M535 737 c-16 -5 -39 -16 -50 -23 -11 -8 -38 -14 -60 -14 -52 -1
-123 -33 -134 -62 -12 -29 -48 -68 -64 -68 -7 0 -30 -18 -51 -39 -32 -33 -40
-49 -44 -90 -2 -27 -2 -61 2 -75 7 -29 116 -147 116 -125 0 12 38 14 247 11
241 -3 249 -2 293 20 31 16 52 36 68 66 20 36 26 41 39 30 11 -8 9 0 -6 27
-11 22 -24 54 -27 72 -6 33 -21 51 -85 103 -23 18 -40 45 -48 72 -16 51 -53
86 -101 94 -19 3 -42 6 -50 8 -8 1 -28 -2 -45 -7z m124 -35 c42 -31 62 -66 63
-110 0 -38 3 -42 25 -42 16 0 40 -14 64 -39 36 -36 39 -43 39 -96 0 -53 -3
-60 -39 -96 l-39 -39 -238 -1 c-132 -1 -250 0 -264 1 -70 6 -120 65 -120 142
0 39 6 54 31 83 17 19 48 40 70 46 22 7 39 18 39 27 0 27 34 72 68 88 24 11
47 14 77 10 33 -5 45 -3 56 10 37 45 119 53 168 16z"/>
<path d="M392 608 c-18 -18 -15 -29 16 -61 l27 -30 -28 7 c-21 5 -28 3 -25 -6
3 -7 18 -13 34 -13 37 0 46 37 15 57 -24 15 -28 33 -6 25 23 -9 28 11 6 22
-24 14 -24 14 -39 -1z"/>
<path d="M515 598 c-23 -18 -28 -19 -22 -5 4 11 1 17 -8 17 -11 0 -15 -13 -15
-55 0 -43 3 -55 16 -55 11 0 14 6 9 20 -3 11 -2 20 4 20 5 0 13 -9 16 -20 3
-11 13 -20 21 -20 19 0 18 7 -6 38 l-20 25 21 24 c30 31 19 39 -16 11z"/>
<path d="M623 601 c-17 -19 -21 -20 -26 -7 -4 9 -13 16 -21 16 -13 0 -12 -6 5
-35 13 -21 18 -42 14 -55 -5 -14 -2 -20 9 -20 11 0 16 9 16 28 0 15 7 38 16
50 22 32 12 50 -13 23z"/>
<path d="M250 411 c0 -48 3 -61 15 -61 11 0 14 7 9 25 -5 21 -3 25 15 25 16 0
21 -6 21 -25 0 -14 6 -25 13 -25 16 0 14 113 -2 118 -6 2 -11 -8 -11 -23 0
-20 -4 -26 -17 -23 -10 2 -18 12 -18 22 0 11 -6 21 -13 24 -9 3 -12 -13 -12
-57z"/>
<path d="M371 443 c-33 -41 -11 -93 40 -93 35 0 59 24 59 59 0 58 -63 80 -99
34z m79 -32 c0 -28 -28 -47 -48 -34 -24 15 -27 44 -7 59 22 17 55 1 55 -25z"/>
<path d="M497 464 c-15 -15 -6 -44 18 -60 14 -9 22 -20 19 -26 -3 -5 -11 -5
-19 2 -9 8 -15 8 -20 0 -10 -16 4 -30 30 -30 37 0 44 38 12 66 -27 23 -26 37
0 27 11 -4 14 -1 11 8 -5 15 -40 24 -51 13z"/>
<path d="M570 455 c0 -8 5 -15 10 -15 6 0 10 -20 10 -45 0 -33 4 -45 15 -45
12 0 13 9 9 43 -5 36 -3 45 10 50 25 10 9 27 -25 27 -19 0 -29 -5 -29 -15z"/>
<path d="M659 468 c-1 -2 -3 -19 -4 -38 l-4 -36 60 1 c40 0 59 4 59 13 0 8
-17 12 -50 12 -29 0 -50 5 -50 11 0 6 20 9 53 8 40 -2 52 0 52 11 0 11 -15 16
-57 18 -32 2 -58 2 -59 0z"/>
<path d="M650 365 c0 -13 11 -15 63 -13 34 2 62 8 62 13 0 6 -28 11 -62 13
-52 2 -63 0 -63 -13z"/>
</g>
</svg>
